<svg width="69" height="60" viewBox="0 0 69 60" fill="none" xmlns="http://www.w3.org/2000/svg">
<circle cx="30" cy="30" r="30" fill="#FDFDFD"/>
<path fill-rule="evenodd" clip-rule="evenodd" d="M30 60C46.5685 60 60 46.5685 60 30C60 13.4315 46.5685 0 30 0C13.4315 0 0 13.4315 0 30C0 46.5685 13.4315 60 30 60ZM18.3274 13.0053V48.4492H27.9499V37.9268H33.2803C35.9802 37.9268 38.3396 37.4249 40.3587 36.4211C42.3894 35.4173 43.9643 33.9867 45.0834 32.1291C46.2141 30.2715 46.7795 28.0736 46.7795 25.5353C46.7795 23.02 46.2314 20.8221 45.1353 18.9415C44.0393 17.0608 42.5047 15.6013 40.5318 14.5629C38.5588 13.5245 36.2571 13.0053 33.6265 13.0053H18.3274ZM27.9499 30.4503H31.342C32.4727 30.4503 33.4361 30.2542 34.2322 29.8619C35.0398 29.4581 35.6571 28.887 36.084 28.1486C36.5224 27.4102 36.7416 26.5391 36.7416 25.5353C36.7416 24.5199 36.5224 23.6546 36.084 22.9393C35.6571 22.2124 35.0398 21.6586 34.2322 21.2778C33.4361 20.8856 32.4727 20.6894 31.342 20.6894H27.9499V30.4503Z" fill="#FC8625"/>
<path d="M51.856 43.648C52.064 43.648 52.224 43.744 52.336 43.936C52.464 44.128 52.528 44.392 52.528 44.728C52.528 45.368 52.376 45.864 52.072 46.216C51.48 46.936 50.64 47.6 49.552 48.208C48.48 48.816 47.328 49.12 46.096 49.12C44.416 49.12 43.112 48.664 42.184 47.752C41.256 46.84 40.792 45.592 40.792 44.008C40.792 42.904 41.024 41.88 41.488 40.936C41.952 39.976 42.592 39.216 43.408 38.656C44.24 38.096 45.176 37.816 46.216 37.816C47.144 37.816 47.888 38.096 48.448 38.656C49.008 39.2 49.288 39.944 49.288 40.888C49.288 41.992 48.888 42.944 48.088 43.744C47.304 44.528 45.968 45.152 44.08 45.616C44.48 46.352 45.24 46.72 46.36 46.72C47.08 46.72 47.896 46.472 48.808 45.976C49.736 45.464 50.536 44.8 51.208 43.984C51.4 43.76 51.616 43.648 51.856 43.648ZM45.808 40.168C45.216 40.168 44.712 40.512 44.296 41.2C43.896 41.888 43.696 42.72 43.696 43.696V43.744C44.64 43.52 45.384 43.184 45.928 42.736C46.472 42.288 46.744 41.768 46.744 41.176C46.744 40.872 46.656 40.632 46.48 40.456C46.32 40.264 46.096 40.168 45.808 40.168ZM61.2779 43.648C61.4859 43.648 61.6459 43.744 61.7579 43.936C61.8859 44.128 61.9499 44.392 61.9499 44.728C61.9499 45.368 61.7979 45.864 61.4939 46.216C60.8059 47.064 60.0539 47.76 59.2379 48.304C58.4219 48.848 57.4859 49.12 56.4299 49.12C53.1659 49.12 51.5339 46.824 51.5339 42.232C51.5339 41.528 51.5579 40.816 51.6059 40.096H50.6699C50.1899 40.096 49.8619 40.008 49.6859 39.832C49.5259 39.656 49.4459 39.376 49.4459 38.992C49.4459 38.096 49.8059 37.648 50.5259 37.648H51.8939C52.1659 35.888 52.5819 34.28 53.1419 32.824C53.7019 31.368 54.3739 30.208 55.1579 29.344C55.9579 28.48 56.8139 28.048 57.7259 28.048C58.3979 28.048 58.9259 28.344 59.3099 28.936C59.6939 29.528 59.8859 30.272 59.8859 31.168C59.8859 33.648 58.8459 35.808 56.7659 37.648H59.4539C59.7099 37.648 59.8939 37.704 60.0059 37.816C60.1179 37.928 60.1739 38.136 60.1739 38.44C60.1739 39.544 59.2699 40.096 57.4619 40.096H54.5339C54.5019 40.896 54.4859 41.52 54.4859 41.968C54.4859 43.632 54.6779 44.8 55.0619 45.472C55.4619 46.144 56.0859 46.48 56.9339 46.48C57.6219 46.48 58.2299 46.272 58.7579 45.856C59.2859 45.44 59.9099 44.816 60.6299 43.984C60.8219 43.76 61.0379 43.648 61.2779 43.648ZM57.0779 30.352C56.8379 30.352 56.5659 30.656 56.2619 31.264C55.9739 31.856 55.6939 32.688 55.4219 33.76C55.1659 34.816 54.9499 35.992 54.7739 37.288C55.7179 36.472 56.4219 35.56 56.8859 34.552C57.3659 33.528 57.6059 32.6 57.6059 31.768C57.6059 30.824 57.4299 30.352 57.0779 30.352ZM64.4598 49.648C63.6278 49.648 62.9878 49.456 62.5398 49.072C62.1078 48.688 61.8918 48.256 61.8918 47.776C61.8918 47.36 62.0438 47 62.3478 46.696C62.6518 46.392 63.0998 46.24 63.6918 46.24C63.8998 46.24 64.1398 46.264 64.4118 46.312C64.6998 46.344 64.9158 46.368 65.0598 46.384C65.0438 45.968 64.9478 45.576 64.7718 45.208C64.6118 44.84 64.4038 44.488 64.1478 44.152C63.8918 43.8 63.6518 43.496 63.4278 43.24C62.9318 44.184 62.4358 44.968 61.9398 45.592C61.4598 46.216 60.9318 46.808 60.3558 47.368C60.0678 47.656 59.7638 47.8 59.4438 47.8C59.1878 47.8 58.9798 47.712 58.8197 47.536C58.6597 47.344 58.5797 47.112 58.5797 46.84C58.5797 46.52 58.6917 46.224 58.9158 45.952L59.2278 45.568C60.1078 44.48 60.7718 43.584 61.2198 42.88C61.5078 42.416 61.7958 41.864 62.0838 41.224C62.3878 40.584 62.7798 39.712 63.2598 38.608C63.5638 37.904 64.1958 37.552 65.1558 37.552C65.6038 37.552 65.9158 37.592 66.0918 37.672C66.2678 37.752 66.3558 37.88 66.3558 38.056C66.3558 38.152 66.3238 38.304 66.2598 38.512C66.1958 38.72 66.1078 38.928 65.9958 39.136C65.7078 39.712 65.5638 40.2 65.5638 40.6C65.5638 40.84 65.6438 41.104 65.8038 41.392C65.9798 41.68 66.2438 42.04 66.5958 42.472C67.1078 43.144 67.4918 43.72 67.7478 44.2C68.0198 44.664 68.1558 45.176 68.1558 45.736C68.1558 46.408 67.9958 47.048 67.6758 47.656C67.3718 48.248 66.9398 48.728 66.3798 49.096C65.8198 49.464 65.1798 49.648 64.4598 49.648Z" fill="#323232"/>
</svg>
